<svg width="190" height="59" viewBox="0 0 190 59" fill="none" xmlns="http://www.w3.org/2000/svg">
<g clip-path="url(#clip0)">
<path d="M181.436 39.9527H180.983V37.0776H182.071C182.796 37.0776 183.159 37.3471 183.159 37.8862C183.159 38.4253 182.796 38.605 182.434 38.6949L183.25 39.9527H182.706L181.98 38.6949H181.527V39.9527H181.436ZM181.98 38.3355C182.343 38.3355 182.615 38.3355 182.615 37.8862C182.615 37.5268 182.252 37.5268 181.98 37.5268H181.436V38.3355H181.98ZM181.98 41.1208C180.529 41.1208 179.441 40.0426 179.441 38.5152C179.441 36.9877 180.62 35.9095 181.98 35.9095C183.34 35.9095 184.519 36.8979 184.519 38.5152C184.519 40.0426 183.34 41.1208 181.98 41.1208ZM181.98 36.3588C180.892 36.3588 179.985 37.2573 179.985 38.5152C179.985 39.6832 180.711 40.6715 181.98 40.6715C183.068 40.6715 183.975 39.773 183.975 38.5152C183.975 37.2573 183.068 36.3588 181.98 36.3588Z" fill="#0155B8"/>
<path d="M105.906 16.3225C103.73 20.9947 99.6494 20.2759 99.6494 20.2759C96.8386 20.0962 96.6572 16.8616 96.6572 16.8616C96.6572 13.2677 101.1 11.4707 101.1 11.4707L110.167 7.87677C110.167 7.87677 107.991 11.6504 105.906 16.3225ZM105.271 12.0997L101.644 13.9865C101.644 13.9865 99.8308 14.9748 99.7401 16.3225C99.7401 16.3225 99.6494 18.3891 101.644 17.3109C103.276 16.4124 104.002 14.6154 104.002 14.6154L105.271 12.0997Z" fill="#0155B8"/>
<path d="M28.5618 14.5256C28.5618 14.5256 26.6577 9.04479 18.4064 9.31433C18.4064 9.31433 6.25628 8.50569 5.80292 22.7018C5.80292 22.7018 4.71484 35.9994 21.1266 37.0776C21.1266 37.0776 30.1939 37.2573 36.3597 30.4288C36.3597 30.4288 39.9866 27.0145 41.7094 23.3307C41.7094 23.3307 42.1627 21.8931 43.6135 21.8033C45.0643 21.7134 46.243 21.983 46.243 21.983C46.243 21.983 46.9684 22.1627 46.8777 23.9597C46.6964 25.8465 46.8777 33.0344 46.8777 33.0344C46.8777 33.0344 46.6964 34.9212 47.6938 34.9212C47.6938 34.9212 48.7818 34.8314 49.7792 32.046C50.7766 29.2607 51.0487 28.5419 51.774 25.1277C51.774 25.1277 51.8647 23.3307 53.3155 23.3307C54.7663 23.3307 55.7637 23.6003 55.7637 23.6003C55.7637 23.6003 56.8517 23.78 56.6704 25.5769C56.489 27.4638 56.489 30.6983 57.3051 32.7648C58.2118 34.7415 59.5719 35.4603 61.2947 35.3704C63.0175 35.1908 64.1962 34.3821 65.103 33.5735C65.103 33.5735 66.2817 32.7648 65.2843 30.878C64.2869 28.9912 63.3802 27.1942 63.0175 22.5221C62.5641 17.85 62.9268 13.2677 63.6522 10.123C64.2869 6.97827 66.0097 3.74371 69.2739 3.65386C69.2739 3.65386 74.2609 3.56402 74.4423 10.5722C74.4423 10.5722 75.2583 20.186 73.7169 26.0262C73.7169 26.0262 72.8101 29.3506 72.0848 30.5186C72.0848 30.5186 70.7247 32.5851 71.9034 33.5735C73.3542 34.8314 74.5329 35.5501 76.0744 35.4603C77.6158 35.3704 79.3386 35.0111 80.5173 34.0227C80.5173 34.0227 81.9681 33.3039 80.9707 31.507C79.9733 29.71 78.7945 25.7566 78.8852 20.186C78.9759 14.6154 79.9733 6.07978 84.9603 5.54069C84.9603 5.54069 89.766 4.73205 90.038 16.053C90.038 16.053 90.4913 22.7916 87.8618 29.5303L86.9551 31.507C86.9551 31.507 85.867 33.4836 87.5898 34.472C89.4033 35.4603 92.6675 34.5618 94.4809 30.1592C94.4809 30.1592 95.4783 26.3856 95.6597 24.2292C95.6597 24.2292 95.3877 22.6119 96.5664 22.4322C97.7452 22.2525 99.6493 22.5221 99.6493 22.5221C99.6493 22.5221 100.828 22.6119 100.556 24.6785C100.284 26.745 100.012 30.6983 100.375 32.1359C100.647 33.5735 101.825 34.472 102.823 34.472C102.823 34.472 104.364 34.5618 105.724 32.3156C106.54 31.0577 106.812 30.4288 106.812 29.1709C106.812 29.1709 107.901 19.5571 116.061 18.389C116.061 18.389 119.869 17.85 121.048 22.0728C121.048 22.0728 121.864 21.8931 122.952 22.5221C122.952 22.5221 124.04 22.5221 123.587 23.9597C123.134 25.3972 122.408 29.6201 122.771 32.4054C122.771 32.4054 125.31 30.1592 128.121 31.5968C128.121 31.5968 128.574 21.3541 136.644 20.2759C136.644 20.2759 140.452 19.7368 141.449 23.8698C141.449 23.8698 142.447 24.0495 142.991 24.2292C143.535 24.4089 143.807 24.8582 143.626 26.0262C143.444 27.1942 142.991 29.9795 142.991 30.7882C142.991 30.7882 142.991 33.843 144.804 33.843C144.804 33.843 146.436 33.9329 147.706 31.3273C148.975 28.7216 151.242 24.948 152.149 23.5104C153.146 22.0728 154.144 21.983 155.141 21.8931C156.138 21.8033 157.952 22.8815 157.861 25.5769C157.771 28.2724 157.952 31.3273 158.043 31.8664C158.043 31.8664 158.315 32.5851 158.768 30.9679C159.221 29.3506 161.942 22.8815 164.934 22.8815C164.934 22.8815 167.745 22.7018 168.289 26.3856C168.833 30.0694 169.649 35.5501 172.278 35.2806C172.278 35.2806 177.356 34.7415 180.167 27.7333L181.618 29.1709C181.618 29.1709 182.434 30.1592 181.527 32.1359C180.62 34.0227 177.447 39.3238 171.825 39.6832C171.825 39.6832 167.019 39.9527 164.934 33.0344C164.934 33.0344 164.662 32.1359 164.48 31.2374C164.48 31.2374 164.299 28.9013 163.392 30.878C162.486 32.8547 160.491 36.8979 160.128 37.3471C159.765 37.8862 158.859 38.9644 157.408 39.0542C157.408 39.0542 154.234 39.0542 153.962 35.5501L153.6 30.878C153.6 30.878 153.509 28.8115 152.602 31.0577C152.602 31.0577 149.701 38.7847 144.986 38.6948C144.986 38.6948 140.18 38.9644 139.092 33.843C139.092 33.843 137.097 39.3238 132.654 39.1441C132.654 39.1441 129.571 38.9644 128.574 35.4603C128.574 35.4603 128.121 33.6633 126.398 34.3821C126.398 34.3821 124.675 35.0111 123.496 36.2689C123.496 36.2689 122.68 37.0776 122.68 38.605C122.68 40.1324 123.224 45.164 123.134 46.8711C123.043 48.5782 122.59 57.8326 117.512 58.0123C117.512 58.0123 112.253 58.821 112.525 50.1955C112.525 50.1955 111.709 43.0076 117.965 36.1791C117.965 36.1791 118.147 35.9095 118.237 35.2806C118.328 34.6517 118.237 33.843 118.237 33.843C118.237 33.843 118.328 32.8547 117.603 34.0227C116.968 35.1907 114.248 38.605 111.437 38.605C111.437 38.605 108.082 38.2456 107.266 35.8197C107.266 35.8197 106.087 38.4253 102.642 38.6948C102.642 38.6948 97.9265 38.7847 96.5664 34.7415C96.5664 34.7415 93.4836 39.3238 89.1313 39.2339C89.1313 39.2339 85.595 39.2339 83.7816 36.2689C83.7816 36.2689 80.6987 39.773 76.4371 39.6832C76.4371 39.6832 71.0874 39.773 68.2765 36.1791C68.2765 36.1791 65.1936 39.5035 61.0227 39.5035C61.0227 39.5035 56.217 39.3238 53.7688 34.472C53.7688 34.472 53.4062 33.0344 52.7715 34.2923C52.7715 34.2923 51.1393 39.3238 47.6031 39.2339C47.6031 39.2339 42.2534 39.8629 41.8 30.1592C41.8 30.1592 34.0022 41.4802 21.1266 41.2106C21.1266 41.2106 0.725241 41.3903 0.0905309 22.5221C0.0905309 22.5221 -0.453506 4.19296 18.1344 4.4625C18.1344 4.4625 33.9115 5.0016 34.9089 19.8266C34.9089 19.8266 35.2716 25.3074 31.1006 25.3972C31.1006 25.3972 27.111 25.3972 26.9297 18.8383C26.839 19.1078 26.4763 16.1428 28.5618 14.5256ZM70.09 17.85C70.362 7.51736 68.8205 8.77524 68.8205 8.77524C67.3698 8.86509 67.2791 17.9398 67.2791 17.9398C67.2791 24.0495 68.5485 27.3739 68.5485 27.3739C69.4552 24.6785 70.09 17.85 70.09 17.85ZM85.595 17.6703C86.139 11.0215 84.6883 10.6621 84.6883 10.6621C83.6909 10.9316 83.1468 17.7601 83.1468 17.7601C82.9655 22.7018 84.0536 27.6435 84.0536 27.6435C84.8696 24.948 85.595 17.6703 85.595 17.6703ZM116.152 50.8244C116.061 53.43 117.331 53.0706 117.331 53.0706C118.328 52.8909 118.328 50.8244 118.328 50.8244L118.509 42.2888C117.058 43.8162 116.242 48.2188 116.152 50.8244ZM117.965 23.9597C116.968 21.8931 114.882 23.3307 114.882 23.3307C112.978 24.6785 111.255 28.4521 111.255 28.4521C109.623 33.7532 112.071 33.7532 112.071 33.7532C113.25 33.7532 114.248 32.3156 114.248 32.3156C114.973 31.507 117.784 26.8348 117.784 26.8348C118.691 25.4871 117.965 23.9597 117.965 23.9597ZM138.548 25.8465C138.457 25.4871 138.367 25.3074 138.367 25.3074C138.004 24.4988 137.097 24.5886 137.097 24.5886C135.012 24.948 133.289 28.0029 132.292 31.3273C131.203 34.6517 132.926 35.1907 132.926 35.1907C133.924 35.3704 135.012 33.6633 135.012 33.6633C136.734 31.3273 138.548 27.1044 138.548 27.1044C138.729 26.2059 138.548 25.8465 138.548 25.8465Z" fill="#0155B8"/>
<path d="M37.6288 45.7031H36.3594V58.2819H37.6288V45.7031Z" fill="#0097DB"/>
<path d="M40.9833 54.9575C40.9833 56.3052 41.9807 57.3834 43.3408 57.3834C44.4289 57.3834 45.0636 56.7545 45.5169 55.9458L46.605 56.5748C45.8796 57.8327 44.7009 58.5514 43.2501 58.5514C41.074 58.5514 39.7139 56.9342 39.7139 54.8676C39.7139 52.7113 40.9833 51.0042 43.2501 51.0042C45.6076 51.0042 46.7864 52.891 46.6957 55.0473H40.9833V54.9575ZM45.4263 53.8793C45.2449 52.8011 44.3382 51.9925 43.3408 51.9925C42.2527 51.9925 41.2553 52.8011 41.1646 53.8793H45.4263Z" fill="#0097DB"/>
<path d="M55.3103 51.9026C55.7636 51.2737 56.3077 50.9143 57.1237 50.9143C57.9398 50.9143 58.7558 51.3636 59.1185 52.0823C59.5719 51.2737 60.388 50.9143 61.2947 50.9143C63.1081 50.9143 63.5615 52.4417 63.5615 53.8793V58.2819H62.2921V54.1489C62.2921 53.2504 62.2014 52.0823 60.932 52.0823C59.4812 52.0823 59.3906 53.4301 59.3906 54.5083V58.2819H58.1211V54.2387C58.1211 53.3402 58.0305 52.0823 56.8517 52.0823C55.401 52.0823 55.2196 53.5199 55.2196 54.5981V58.2819H53.9502V51.094H55.3103V51.9026Z" fill="#0097DB"/>
<path d="M67.0975 54.9575C67.0975 56.3052 68.0949 57.3834 69.455 57.3834C70.5431 57.3834 71.1778 56.7545 71.6312 55.9458L72.7193 56.5748C71.9939 57.8327 70.8151 58.5514 69.3644 58.5514C67.1882 58.5514 65.8281 56.9342 65.8281 54.8676C65.8281 52.7113 67.0975 51.0042 69.3644 51.0042C71.7219 51.0042 72.9006 52.891 72.8099 55.0473H67.0975V54.9575ZM71.4498 53.8793C71.2685 52.8011 70.3618 51.9925 69.3644 51.9925C68.2763 51.9925 67.2789 52.8011 67.1882 53.8793H71.4498Z" fill="#0097DB"/>
<path d="M76.6182 48.3985C76.6182 48.8478 76.2555 49.297 75.7114 49.297C75.2581 49.297 74.8047 48.9376 74.8047 48.3985C74.8047 47.9493 75.1674 47.5001 75.7114 47.5001C76.2555 47.5001 76.6182 47.9493 76.6182 48.3985ZM76.4368 58.2819H75.1674V51.094H76.4368V58.2819Z" fill="#0097DB"/>
<path d="M80.6981 45.7031H79.4287V58.2819H80.6981V45.7031Z" fill="#0097DB"/>
<path d="M84.6884 45.7031H83.4189V58.2819H84.6884V45.7031Z" fill="#0097DB"/>
<path d="M88.0429 54.9575C88.0429 56.3052 89.0403 57.3834 90.4003 57.3834C91.4884 57.3834 92.1231 56.7545 92.5765 55.9458L93.6646 56.5748C92.9392 57.8327 91.7604 58.5514 90.3097 58.5514C88.1335 58.5514 86.7734 56.9342 86.7734 54.8676C86.7734 52.7113 88.0429 51.0042 90.3097 51.0042C92.6672 51.0042 93.8459 52.891 93.7552 55.0473H88.0429V54.9575ZM92.4858 53.8793C92.3045 52.8011 91.3978 51.9925 90.4003 51.9925C89.3123 51.9925 88.3149 52.8011 88.2242 53.8793H92.4858Z" fill="#0097DB"/>
<path d="M97.1102 55.1372C97.1102 56.3052 97.2916 57.3834 98.7424 57.3834C100.284 57.3834 100.374 56.3052 100.374 55.1372V51.094H101.644V55.227C101.644 57.1139 100.919 58.4616 98.7424 58.4616C96.5662 58.4616 95.8408 57.1139 95.8408 55.227V51.094H97.1102V55.1372Z" fill="#0097DB"/>
<path d="M105.543 51.9026C105.996 51.3636 106.359 50.9143 107.175 50.9143C107.628 50.9143 107.9 51.094 108.263 51.2737L107.719 52.3519C107.447 52.1722 107.266 51.9925 106.994 51.9925C105.634 51.9925 105.543 53.6996 105.543 54.688V58.2819H104.273V51.094H105.543V51.9026Z" fill="#0097DB"/>
<path d="M132.291 57.2935C131.656 58.1022 130.75 58.4616 129.752 58.4616C127.667 58.4616 126.307 56.6646 126.307 54.6879C126.307 52.6214 127.576 50.9143 129.752 50.9143C130.75 50.9143 131.656 51.3635 132.2 52.1722V45.7031H133.47V58.2819H132.2V57.2935H132.291ZM127.576 54.5981C127.576 56.0357 128.392 57.2935 129.934 57.2935C131.566 57.2935 132.382 56.0357 132.382 54.5981C132.382 53.1605 131.475 51.9925 129.934 51.9925C128.483 51.9925 127.576 53.2504 127.576 54.5981Z" fill="#0097DB"/>
<path d="M136.825 54.9575C136.825 56.3052 137.822 57.3834 139.183 57.3834C140.271 57.3834 140.905 56.7545 141.359 55.9458L142.447 56.5748C141.721 57.8327 140.543 58.5514 139.092 58.5514C136.916 58.5514 135.556 56.9342 135.556 54.8676C135.556 52.7113 136.825 51.0042 139.092 51.0042C141.449 51.0042 142.628 52.891 142.537 55.0473H136.825V54.9575ZM141.268 53.8793C141.087 52.8011 140.18 51.9925 139.183 51.9925C138.095 51.9925 137.097 52.8011 137.006 53.8793H141.268Z" fill="#0097DB"/>
<path d="M150.97 45.7031H149.7V58.2819H150.97V45.7031Z" fill="#0097DB"/>
<path d="M155.957 46.961L154.143 50.9143L153.327 50.5549L154.778 46.6016L155.957 46.961Z" fill="#0097DB"/>
<path d="M159.04 54.9575C159.04 56.3052 160.037 57.3834 161.397 57.3834C162.485 57.3834 163.12 56.7545 163.574 55.9458L164.662 56.5748C163.936 57.8327 162.757 58.5514 161.307 58.5514C159.131 58.5514 157.771 56.9342 157.771 54.8676C157.771 52.7113 159.04 51.0042 161.307 51.0042C163.664 51.0042 164.843 52.891 164.752 55.0473H159.04V54.9575ZM163.392 53.8793C163.211 52.8011 162.304 51.9925 161.307 51.9925C160.219 51.9925 159.221 52.8011 159.131 53.8793H163.392Z" fill="#0097DB"/>
<path d="M173.366 58.2819H172.097V57.2936C171.462 58.1022 170.646 58.4616 169.558 58.4616C167.472 58.4616 166.112 56.6646 166.112 54.688C166.112 52.6214 167.382 50.9143 169.558 50.9143C170.555 50.9143 171.462 51.3636 172.006 52.1722V51.1839H173.275V58.2819H173.366ZM167.382 54.5981C167.382 56.0357 168.198 57.2936 169.739 57.2936C171.371 57.2936 172.187 56.0357 172.187 54.5981C172.187 53.1605 171.281 51.9925 169.739 51.9925C168.379 51.9925 167.382 53.2504 167.382 54.5981Z" fill="#0097DB"/>
<path d="M177.175 55.1372C177.175 56.3052 177.356 57.3834 178.807 57.3834C180.258 57.3834 180.439 56.3052 180.439 55.1372V51.094H181.708V55.227C181.708 57.1139 180.983 58.4616 178.807 58.4616C176.631 58.4616 175.905 57.1139 175.905 55.227V51.094H177.175V55.1372Z" fill="#0097DB"/>
</g>
<defs>
<clipPath id="clip0">
<rect width="184.519" height="54.8077" fill="white" transform="translate(0 3.65387)"/>
</clipPath>
</defs>
</svg>
